<?xml version="1.0" encoding="iso-8859-1"?>
<!-- Generator: Adobe Illustrator 19.0.0, SVG Export Plug-In . SVG Version: 6.00 Build 0)  -->
<svg version="1.1" id="Layer_1" xmlns="http://www.w3.org/2000/svg" xmlns:xlink="http://www.w3.org/1999/xlink" x="0px" y="0px"
	 viewBox="0 0 512.001 512.001" style="enable-background:new 0 0 512.001 512.001;" xml:space="preserve">
<path style="fill:#FDBB00;" d="M236.186,119.417V90.359H52.954v141.935c0,29.285,3.24,58.479,9.661,87.052l0,0
	c7.888,35.096,10.968,71.101,9.158,107.025l-2.177,43.226c-0.952,18.894,14.11,34.735,33.029,34.735h83.89
	c18.918,0,33.981-15.84,33.029-34.735l-2.177-43.226c-1.81-35.926,1.271-71.93,9.158-107.025l0,0
	c6.421-28.572,9.661-57.767,9.661-87.052L236.186,119.417"/>
<path style="fill:#EDAB06;" d="M100.274,469.596l2.177-43.226c1.81-35.926-1.271-71.93-9.158-107.025l0,0
	c-6.421-28.572-9.661-57.767-9.661-87.052V90.359H52.954v141.935c0,29.285,3.24,58.479,9.661,87.052l0,0
	c7.888,35.095,10.968,71.101,9.158,107.025l-2.177,43.226c-0.952,18.894,14.11,34.734,33.029,34.734h30.677
	C114.385,504.331,99.323,488.491,100.274,469.596z"/>
<g>
	<rect x="52.954" y="89.896" style="fill:#F2F2F2;" width="184.689" height="48.089"/>
	<path style="fill:#F2F2F2;" d="M52.954,92.303c-3.575-5.298-5.652-11.681-5.652-18.548c0-18.347,14.879-33.214,33.226-33.214
		c4.578,0,8.932,0.92,12.896,2.596c0.071-18.3,14.914-33.108,33.226-33.108c6.596,0,12.743,1.935,17.923,5.262
		c5.168-3.327,11.315-5.262,17.923-5.262c18.312,0,33.155,14.808,33.214,33.108c3.976-1.675,8.33-2.596,12.908-2.596
		c18.347,0,33.214,14.867,33.214,33.214c0,6.855-2.077,13.227-5.64,18.524"/>
	<path style="fill:#F2F2F2;" d="M391.97,219.344c2.726-5.321,4.272-11.347,4.272-17.736c0-21.526-17.45-38.976-38.976-38.976
		c-3.458,0-6.809,0.455-10.002,1.301c-4.18-8.776-13.13-14.843-23.498-14.843c-6.216,0-11.919,2.183-16.395,5.819
		c-7.142-8.105-17.592-13.224-29.245-13.224c-11.653,0-22.102,5.12-29.245,13.224c-4.475-3.636-10.179-5.819-16.395-5.819
		c-10.369,0-19.317,6.067-23.498,14.843c-3.193-0.846-6.544-1.301-10.002-1.301c-21.526,0-38.976,17.451-38.976,38.976
		c0,6.39,1.548,12.415,4.272,17.736"/>
</g>
<path style="fill:#8CC63F;" d="M393.274,219.303H162.982v222.788c0,14.12,11.446,25.566,25.566,25.566h179.16
	c14.12,0,25.566-11.446,25.566-25.566V219.303z"/>
<path style="fill:#7EAF31;" d="M193.659,442.091V219.303h-30.677v222.788c0,14.12,11.446,25.566,25.566,25.566h30.677
	C205.105,467.657,193.659,456.211,193.659,442.091z"/>
<g>
	<rect x="164.289" y="219.343" style="fill:#F2F2F2;" width="228.983" height="34.583"/>
	<polyline style="fill:#F2F2F2;" points="373.091,467.659 364.484,504.331 191.77,504.331 183.165,467.659 	"/>
</g>
<path d="M160.505,494.302h-58.36c-6.701,0-12.934-2.675-17.552-7.53c-4.618-4.856-6.976-11.216-6.638-17.91l2.177-43.226
	c1.85-36.725-1.3-73.537-9.364-109.411c-6.269-27.892-9.446-56.528-9.446-85.111v-85.454h122.78c4.887,0,8.849-3.962,8.849-8.849
	s-3.962-8.849-8.849-8.849H61.323V98.029h165.534v20.208c0,4.887,3.962,8.849,8.849,8.849s8.849-3.962,8.849-8.849v-24.62
	c3.697-6.384,5.646-13.599,5.646-21.042c0-23.193-18.87-42.063-42.063-42.063c-1.877,0-3.737,0.122-5.573,0.363
	C197.645,13.102,181.31,0,162.015,0c-6.242,0-12.346,1.376-17.926,4.013C138.505,1.376,132.401,0,126.17,0
	c-19.29,0-35.628,13.102-40.557,30.874c-1.832-0.242-3.69-0.362-5.566-0.362c-23.2,0-42.075,18.87-42.075,42.063
	c0,7.463,1.952,14.685,5.653,21.066v137.473c0,29.887,3.323,59.828,9.877,88.991c7.711,34.31,10.723,69.516,8.954,104.64
	l-2.177,43.226c-0.583,11.583,3.497,22.59,11.489,30.996c7.991,8.404,18.78,13.033,30.378,13.033h58.359
	c4.887,0,8.849-3.962,8.849-8.849C169.354,498.265,165.392,494.302,160.505,494.302z M80.048,48.211
	c3.292,0,6.472,0.638,9.451,1.897c2.727,1.153,5.849,0.865,8.321-0.766c2.471-1.631,3.962-4.39,3.974-7.35
	c0.051-13.397,10.986-24.294,24.377-24.294c4.668,0,9.21,1.334,13.139,3.858c2.917,1.874,6.659,1.872,9.574-0.005
	c3.915-2.521,8.456-3.854,13.132-3.854c13.392,0,24.321,10.895,24.365,24.286c0.009,2.96,1.498,5.719,3.967,7.352
	s5.59,1.923,8.318,0.774c2.995-1.261,6.181-1.901,9.472-1.901c13.435,0,24.365,10.931,24.365,24.365
	c0,2.665-0.444,5.274-1.275,7.755H56.942c-0.829-2.477-1.271-5.087-1.271-7.755C55.671,59.141,66.606,48.211,80.048,48.211z"/>
<path d="M431.689,232.61h-30.046v-14.486c0-0.33-0.021-0.656-0.057-0.977c1.987-5.332,3.026-11.02,3.026-16.719
	c0-26.371-21.455-47.825-47.825-47.825c-1.896,0-3.791,0.113-5.671,0.336c-6.517-8.597-16.831-13.878-27.83-13.878
	c-5.298,0-10.519,1.221-15.24,3.514c-8.507-7.006-19.243-10.918-30.4-10.918c-11.158,0-21.892,3.911-30.399,10.918
	c-4.722-2.293-9.942-3.514-15.241-3.514c-10.999,0-21.312,5.281-27.83,13.878c-1.88-0.223-3.773-0.336-5.669-0.336
	c-26.371,0-47.826,21.454-47.826,47.825c0,5.698,1.039,11.386,3.025,16.718c-0.035,0.321-0.057,0.647-0.057,0.977v222.788
	c0,14.379,8.868,26.721,21.42,31.86l7.603,32.401c0.938,4,4.507,6.828,8.616,6.828h128.5c4.888,0,8.849-3.962,8.849-8.849
	c0-4.887-3.961-8.849-8.849-8.849H198.303l-4.453-18.975h167.593l-4.453,18.975h-8.882c-4.888,0-8.849,3.962-8.849,8.849
	c0,4.887,3.961,8.849,8.849,8.849h15.897c4.108,0,7.676-2.827,8.616-6.828l7.603-32.401c12.552-5.138,21.42-17.48,21.42-31.86
	v-27.257h30.046c23.345,0,42.339-18.994,42.339-42.339v-96.366C474.027,251.603,455.035,232.61,431.689,232.61z M198.508,170.301
	c2.612,0,5.215,0.339,7.737,1.006c4.115,1.088,8.423-0.905,10.254-4.749c2.835-5.953,8.924-9.799,15.509-9.799
	c3.985,0,7.724,1.327,10.814,3.837c3.687,2.997,9.08,2.547,12.22-1.016c5.726-6.499,13.965-10.226,22.606-10.226
	s16.88,3.727,22.606,10.226c3.143,3.564,8.537,4.012,12.22,1.016c3.089-2.511,6.827-3.837,10.813-3.837
	c6.585,0,12.672,3.846,15.509,9.799c1.831,3.844,6.131,5.839,10.256,4.749c2.521-0.668,5.124-1.006,7.737-1.006
	c16.612,0,30.126,13.515,30.126,30.126c0,3.042-0.446,6.001-1.324,8.847H169.705c-0.878-2.846-1.324-5.805-1.324-8.847
	C168.381,183.816,181.897,170.301,198.508,170.301z M383.945,440.911c0,9.219-7.498,16.717-16.717,16.717h-179.16
	c-9.219,0-16.717-7.499-16.717-16.717V261.595H335.13c4.888,0,8.849-3.962,8.849-8.849s-3.961-8.849-8.849-8.849H171.351v-16.924
	h212.594v14.486v2.438h-19.317c-4.888,0-8.849,3.962-8.849,8.849s3.961,8.849,8.849,8.849h19.317v143.21V440.911z M456.329,371.315
	c0,13.588-11.053,24.641-24.641,24.641h-30.046V250.308h30.046c13.588,0,24.641,11.054,24.641,24.641V371.315z"/>
<circle cx="314.242" cy="380.175" r="8.849"/>
<circle cx="269.052" cy="409.672" r="8.849"/>
<circle cx="244.274" cy="311.741" r="8.849"/>
<circle cx="127.464" cy="320" r="8.849"/>
<circle cx="107.406" cy="226.788" r="8.849"/>
<g>
</g>
<g>
</g>
<g>
</g>
<g>
</g>
<g>
</g>
<g>
</g>
<g>
</g>
<g>
</g>
<g>
</g>
<g>
</g>
<g>
</g>
<g>
</g>
<g>
</g>
<g>
</g>
<g>
</g>
</svg>
